Coordinates
version=1
nRows=16
nColumns=40
inDegrees=yes

Units are S.I. units (second, meters, Newtons, ...)
Angles are in degrees.

endheader
time	pelvis_tilt	pelvis_list	pelvis_rotation	pelvis_tx	pelvis_ty	pelvis_tz	hip_flexion_r	hip_adduction_r	hip_rotation_r	knee_angle_r	knee_angle_r_beta	ankle_angle_r	subtalar_angle_r	mtp_angle_r	hip_flexion_l	hip_adduction_l	hip_rotation_l	knee_angle_l	knee_angle_l_beta	ankle_angle_l	subtalar_angle_l	mtp_angle_l	lumbar_extension	lumbar_bending	lumbar_rotation	arm_flex_r	arm_add_r	arm_rot_r	elbow_flex_r	pro_sup_r	wrist_flex_r	wrist_dev_r	arm_flex_l	arm_add_l	arm_rot_l	elbow_flex_l	pro_sup_l	wrist_flex_l	wrist_dev_l
      2.80250000	     -4.32634044	     -3.30309964	      5.26754437	      0.82239031	      0.91700065	      0.42260411	     -1.29711969	     -0.58262631	    -16.25995207	     24.52579135	     24.52579135	     17.61932984	     -2.50474539	     -7.94908921	     28.26503657	     -2.67135318	     -3.66119048	     24.85550274	     24.85550274	      4.43264459	    -14.39435316	      2.68507016	     -6.29725755	      3.89296918	      5.76604226	     31.45987191	    -14.29879412	     -0.67111240	     78.82198060	     44.73239999	      0.00000000	      0.00000000	     -4.74678339	     -6.08625030	     -0.89903850	     24.87480079	     46.12283176	      0.00000000	      0.00000000
      2.81428571	     -4.41871661	     -3.21112283	      4.89181595	      0.82316578	      0.91833451	      0.42081677	     -0.16430757	     -1.32211151	    -15.88330199	     27.34774532	     27.34774532	     16.61611518	     -3.41462855	     -8.78574370	     27.63724106	     -2.69803013	     -4.21348607	     24.71831793	     24.71831793	      5.08502787	    -13.99078180	      2.33124066	     -6.19677462	      3.73572210	      5.89138078	     30.04742649	    -14.33354481	     -0.27122404	     77.53442959	     44.76153014	      0.00000000	      0.00000000	     -3.69279626	     -6.09742999	     -1.04536477	     25.43635046	     46.16250025	      0.00000000	      0.00000000
      2.82607143	     -4.47923881	     -3.18002235	      4.52014999	      0.82379223	      0.91973694	      0.41919685	      1.07309570	     -1.96920883	    -15.38151095	     30.30658287	     30.30658287	     15.27899194	     -4.55656383	     -9.70624339	     26.96674051	     -2.81019591	     -4.80591055	     24.53987623	     24.53987623	      5.66726240	    -13.42757093	      1.93694006	     -6.17455546	      3.61893963	      5.94759928	     28.67256831	    -14.29448359	      0.23998795	     75.97304176	     44.79689386	      0.00000000	      0.00000000	     -2.63566615	     -6.11638655	     -1.22658033	     26.07451085	     46.20538117	      0.00000000	      0.00000000
      2.83785714	     -4.49583334	     -3.12888054	      4.13379100	      0.82426583	      0.92106920	      0.41773712	      2.44082532	     -2.62650961	    -14.80614673	     33.49323210	     33.49323210	     13.81231536	     -5.81385916	    -10.49794400	     26.22166017	     -2.91012970	     -5.47387515	     24.29877534	     24.29877534	      6.22066446	    -12.82047024	      1.49746418	     -6.19127223	      3.50614533	      5.93536490	     27.34526131	    -14.17748452	      0.78637963	     74.30621665	     44.83411865	      0.00000000	      0.00000000	     -1.56074112	     -6.18569699	     -1.41671920	     26.84054576	     46.24779602	      0.00000000	      0.00000000
      2.84964286	     -4.45926778	     -3.21319842	      3.73352147	      0.82463177	      0.92229161	      0.41657500	      3.85153523	     -2.98082377	    -13.92057653	     36.63926228	     36.63926228	     11.84050950	     -7.79822971	    -11.85318484	     25.49930291	     -3.23057764	     -6.28513365	     24.17791872	     24.17791872	      6.71932155	    -11.91390158	      0.57618610	     -6.23322469	      3.52120768	      5.55507205	     26.70313564	    -13.78116238	      1.84693913	     71.02602098	     44.92265500	      0.00000000	      0.00000000	     -0.88958033	     -6.34659677	     -1.99279825	     28.39805119	     46.32155032	      0.00000000	      0.00000000
      2.86142857	     -4.43002524	     -3.04540551	      3.38236921	      0.82474052	      0.92339690	      0.41522181	      5.43333977	     -3.79893396	    -13.45298054	     40.13182223	     40.13182223	     10.44529565	     -8.59385911	    -11.99811777	     24.66429351	     -3.13288818	     -6.82828582	     23.81041217	     23.81041217	      7.12437890	    -11.57211369	      0.31827703	     -6.39262480	      3.27838652	      5.34961961	     25.27968188	    -13.49130371	      2.28670977	     69.93734675	     44.94029836	      0.00000000	      0.00000000	      0.33826740	     -6.49942595	     -2.10300340	     29.21393991	     46.35326076	      0.00000000	      0.00000000
      2.87321429	     -4.48016346	     -3.06617181	      2.99083326	      0.82466416	      0.92419785	      0.41425860	      7.26278448	     -4.20590878	    -12.57802164	     43.67212557	     43.67212557	      9.31885284	     -9.76399425	    -10.70148531	     23.98496859	     -3.31037856	     -7.51447028	     23.50431357	     23.50431357	      7.33622369	    -10.98830838	     -0.76994738	     -6.35301050	      3.21513065	      4.69966208	     24.78479887	    -12.89810563	      3.30716810	     66.16552517	     45.04885751	      0.00000000	      0.00000000	      0.61209752	     -6.89191351	     -2.56600015	     31.88714069	     46.37970744	      0.00000000	      0.00000000
      2.88500000	     -4.48613598	     -2.93528689	      2.63390845	      0.82440207	      0.92489251	      0.41316332	      9.07487356	     -4.81159725	    -11.85410287	     47.12302051	     47.12302051	      8.09107080	    -10.54421901	    -10.33954138	     23.27011512	     -3.21866737	     -7.91275080	     23.20674816	     23.20674816	      7.67375029	    -10.81482489	     -1.00932709	     -6.47363273	      3.04243890	      4.69369510	     23.25975975	    -12.88881632	      3.67715623	     64.81587447	     45.07728749	      0.00000000	      0.00000000	      1.97003433	     -7.08828916	     -2.63962507	     32.95086042	     46.40445045	      0.00000000	      0.00000000
      2.89678571	     -4.46562083	     -2.89385623	      2.30575582	      0.82394974	      0.92552285	      0.41219870	     10.99970215	     -5.22185065	    -11.06333931	     50.67785715	     50.67785715	      8.13767529	    -10.59498372	     -6.43097887	     22.56017144	     -3.20816223	     -8.24024678	     22.88930253	     22.88930253	      7.69057085	    -10.86325146	     -1.96343860	     -6.59092322	      2.93349277	      3.99063681	     22.79604687	    -12.26469166	      4.45571939	     60.94675086	     45.19713648	      0.00000000	      0.00000000	      2.26487975	     -7.73173562	     -2.16987093	     36.22202195	     46.29696309	      0.00000000	      0.00000000
      2.90857143	     -4.45999224	     -2.77057192	      1.97448914	      0.82335744	      0.92605700	      0.41119783	     12.85532532	     -5.65672217	    -10.26808623	     53.75466076	     53.75466076	      7.10741811	    -11.20538992	     -6.17781150	     21.90427591	     -3.08790852	     -8.53558950	     22.64998740	     22.64998740	      8.02186976	    -10.85516167	     -2.11731849	     -6.76117504	      2.78716318	      3.99000225	     21.16987583	    -12.35389366	      4.68432960	     59.61156581	     45.22830944	      0.00000000	      0.00000000	      3.78463572	     -7.96676299	     -2.17597478	     37.31225987	     46.31784781	      0.00000000	      0.00000000
      2.92035714	     -4.46725050	     -2.68587271	      1.64526147	      0.82265290	      0.92658114	      0.41023020	     14.72988962	     -5.96227350	     -9.45967385	     56.58167633	     56.58167633	      6.33532078	    -11.68989292	     -5.65875361	     21.27334050	     -2.97855619	     -8.72284879	     22.39762417	     22.39762417	      8.28497275	    -10.98913518	     -2.27017721	     -6.89292429	      2.70326927	      4.12537030	     19.57809999	    -12.51960025	      4.79982246	     57.69803401	     45.28448164	      0.00000000	      0.00000000	      5.30764856	     -8.17896689	     -2.05197398	     38.87141089	     46.32515562	      0.00000000	      0.00000000
      2.93214286	     -4.40960446	     -2.64542027	      1.37549116	      0.82187105	      0.92720113	      0.40926616	     16.57643735	     -6.19834350	     -8.76733637	     59.30683719	     59.30683719	      6.69799779	    -11.41384123	     -2.52368653	     20.54192241	     -2.83464713	     -8.62782287	     22.01635789	     22.01635789	      8.20932442	    -11.62917931	     -2.85138001	     -7.07927747	      2.66782454	      3.35991922	     19.39723386	    -11.52525999	      4.21874373	     52.55620629	     45.49075141	      0.00000000	      0.00000000	      5.48266363	     -9.33130785	     -0.17198993	     43.18843574	     46.12474872	      0.00000000	      0.00000000
      2.94392857	     -4.42106632	     -2.57704239	      1.03437050	      0.82103525	      0.92774251	      0.40837363	     18.40852382	     -6.36715735	     -8.01543517	     61.50452247	     61.50452247	      6.17989654	    -11.72895346	     -2.40546490	     19.91452742	     -2.72857400	     -8.78138868	     21.74106555	     21.74106555	      8.51687345	    -11.76648700	     -2.90167712	     -7.23237623	      2.63893531	      3.54908068	     17.65383881	    -11.89524329	      4.35588350	     51.00922792	     45.53035187	      0.00000000	      0.00000000	      7.15732425	     -9.48096048	     -0.09856426	     44.64418889	     46.14482939	      0.00000000	      0.00000000
      2.95571429	     -4.41192861	     -2.52821742	      0.70237369	      0.82013668	      0.92837669	      0.40746880	     20.17711132	     -6.45752089	     -7.30680262	     63.34244437	     63.34244437	      5.82047138	    -12.04084251	     -2.20133002	     19.25451129	     -2.60740158	     -8.84880555	     21.41870252	     21.41870252	      8.70978185	    -12.09818215	     -2.87606965	     -7.40249809	      2.66131470	      3.86102880	     15.96935172	    -12.25631080	      4.31747132	     48.82670579	     45.60130667	      0.00000000	      0.00000000	      8.83769532	     -9.66445670	      0.22038637	     46.74294345	     46.14779736	      0.00000000	      0.00000000
      2.96750000	     -4.31826301	     -2.54364457	      0.42219881	      0.81927287	      0.92916442	      0.40666154	     21.77622434	     -6.48307967	     -6.79600429	     64.83189714	     64.83189714	      5.89160202	    -12.11478833	     -1.32824195	     18.45961520	     -2.48366658	     -8.61365334	     20.97925816	     20.97925816	      8.72853088	    -12.84852051	     -3.01876000	     -7.66522027	      2.74043514	      3.31010464	     15.69377296	    -11.54859983	      3.16980934	     43.84203334	     45.83018307	      0.00000000	      0.00000000	      9.14931901	    -11.11548312	      2.66648928	     51.60380835	     45.97956608	      0.00000000	      0.00000000
      2.97928571	     -4.26794588	     -2.58840635	      0.08904692	      0.81840742	      0.92989800	      0.40597987	     23.34293236	     -6.39043575	     -6.26469977	     65.86290011	     65.86290011	      5.72822771	    -12.46602397	     -1.23758074	     17.75351945	     -2.49047837	     -8.75273183	     20.66195749	     20.66195749	      8.96628765	    -12.97142141	     -3.07413988	     -7.88256944	      2.89968278	      3.58032651	     14.18834539	    -11.84592554	      2.75598500	     41.39342648	     45.92667363	      0.00000000	      0.00000000	     10.71605765	    -11.41588166	      3.19173006	     54.22844640	     45.99356925	      0.00000000	      0.00000000
